<svg xmlns="http://www.w3.org/2000/svg" xmlns:xlink="http://www.w3.org/1999/xlink" width="209.713" height="89.078" viewBox="0 0 209.713 89.078"><defs><style>.a{fill:#583bd8;}.b{fill:#2f06c1;}.c{fill:#fff;}.d{fill:url(#a);}.e{fill:url(#b);}.f{fill:#564d7b;}</style><linearGradient id="a" x1="1.097" y1="0.892" x2="0.437" y2="0.306" gradientUnits="objectBoundingBox"><stop offset="0" stop-color="#5d7dd6"/><stop offset="1" stop-color="#fff"/></linearGradient><linearGradient id="b" x1="-0.104" y1="0.253" x2="0.555" y2="0.897" xlink:href="#a"/></defs><g transform="translate(-522.199 -403.972)"><circle class="a" cx="33.38" cy="33.38" r="33.38" transform="translate(522.199 413.632)"/><g transform="translate(530.261 406.972)"><path class="b" d="M532.81,403.972,580.64,443l-22.809,9.451,19.656,37.6-49.481-39.528,24.554-10.439Z" transform="translate(-528.006 -403.972)"/><path class="b" d="M577.487,481.777l-49.481-39.528,29.825,1.925Z" transform="translate(-528.006 -395.699)"/><path class="b" d="M528.006,444.1l29.825,1.925,22.809-9.451-28.08-2.913Z" transform="translate(-528.006 -397.554)"/><path class="b" d="M579.786,443l-28.08-2.913-19.75-36.111Z" transform="translate(-527.152 -403.972)"/></g><g transform="translate(529.261 403.972)"><path class="c" d="M532.81,403.972,580.64,443l-22.809,9.451,19.656,37.6-49.481-39.528,24.554-10.439Z" transform="translate(-528.006 -403.972)"/><path class="d" d="M577.487,481.777l-49.481-39.528,29.825,1.925Z" transform="translate(-528.006 -395.699)"/><path class="c" d="M528.006,444.1l29.825,1.925,22.809-9.451-28.08-2.913Z" transform="translate(-528.006 -397.554)"/><path class="e" d="M579.786,443l-28.08-2.913-19.75-36.111Z" transform="translate(-527.152 -403.972)"/></g><path class="f" d="M3.388,0H18.26c.88,0,1.232-.352,1.232-1.232V-1.98c0-.88-.352-1.188-1.232-1.188H6.776L18.524-20.636a3.081,3.081,0,0,0,.528-1.54v-.616c0-.88-.352-1.232-1.188-1.232H3.608c-.836,0-1.188.352-1.188,1.232v.748c0,.88.352,1.188,1.188,1.188H14.476L2.728-3.388A2.794,2.794,0,0,0,2.156-1.8v.572C2.156-.352,2.508,0,3.388,0Zm28.2.44A11.812,11.812,0,0,0,39.2-2.068v.836A1.078,1.078,0,0,0,40.436,0H41.4c.836,0,1.188-.4,1.188-1.232v-13.9c0-6.16-3.168-9.328-9.372-9.328A21.13,21.13,0,0,0,26-23.144a1.052,1.052,0,0,0-.572,1.452l.308,1.012c.264.7.748.836,1.892.44a15.376,15.376,0,0,1,5.1-.968c4.224,0,6.16,2.024,6.16,6.512v.88c-10.78.044-15.18,2.244-15.18,7.524C23.716-2.024,26.576.44,31.592.44Zm.7-3.08c-3.168,0-4.8-1.276-4.8-3.652,0-3.344,2.992-4.62,11.4-4.708v6.16A10.732,10.732,0,0,1,32.3-2.64ZM55.44.44c6.16,0,9.592-2.42,9.592-6.732,0-3.3-1.848-5.324-5.808-6.688l-2.376-.792c-3.344-1.144-4.356-2.024-4.356-3.916,0-2.244,2.024-3.52,5.676-3.52a12.554,12.554,0,0,1,4.136.748c1.1.4,1.5.308,1.76-.484l.308-1.1a1.037,1.037,0,0,0-.572-1.408,15.731,15.731,0,0,0-5.632-1.012c-5.9,0-9.5,2.64-9.5,6.82,0,3.256,1.848,5.324,5.808,6.688l2.376.792C60.192-9.02,61.2-8.14,61.2-6.248c0,2.332-1.892,3.432-5.984,3.432A14.493,14.493,0,0,1,49.456-3.96c-1.012-.4-1.5-.176-1.5.836v1.188a1.1,1.1,0,0,0,.7,1.144A17.754,17.754,0,0,0,55.44.44ZM71.808,7.656h1.276c.88,0,1.188-.352,1.188-1.232V-.484A13.8,13.8,0,0,0,79.42.44c6.952,0,10.692-4.532,10.692-13.024,0-7.788-3.168-11.88-9.152-11.88a10.813,10.813,0,0,0-7,2.42v-.748c0-.88-.352-1.232-1.188-1.232h-.968c-.88,0-1.232.352-1.232,1.232V6.424C70.576,7.3,70.928,7.656,71.808,7.656ZM78.892-2.816a9.319,9.319,0,0,1-4.62-1.1V-19.1a9.6,9.6,0,0,1,5.984-2.112c4.092,0,6.028,2.772,6.028,8.668C86.284-5.94,83.908-2.816,78.892-2.816ZM106.656.44A19.163,19.163,0,0,0,113.52-.792a1.248,1.248,0,0,0,.748-1.232V-3.212c0-.88-.528-1.188-1.54-.792a15.117,15.117,0,0,1-5.764,1.144c-4.972,0-7.172-2.2-7.48-7.392l7.524-.528c5.236-.4,8.008-2.684,8.008-6.644,0-4.356-3.3-7.04-8.624-7.04-7,0-10.736,4.444-10.736,12.76C95.656-3.476,99.22.44,106.656.44ZM99.44-13.068c.088-5.368,2.552-8.36,6.908-8.36,3.168,0,4.972,1.452,4.972,4,0,2.464-1.76,3.652-5.588,3.916ZM122.188,0h1.276c.88,0,1.188-.352,1.188-1.232V-18.568A13.67,13.67,0,0,1,131.6-20.5h.792c.748,0,1.056-.4,1.056-1.188v-1.364c0-.924-.352-1.232-1.32-1.232a13.766,13.766,0,0,0-7.7,2.816h-.044v-1.364c0-.836-.352-1.188-1.188-1.188h-1.012c-.88,0-1.232.352-1.232,1.232v21.56C120.956-.352,121.308,0,122.188,0Z" transform="translate(598.46 459.837)"/></g></svg>